<?xml version="1.0" encoding="UTF-8" standalone="no"?>
<!-- Created with Inkscape (http://www.inkscape.org/) -->

<svg
   width="297mm"
   height="210mm"
   viewBox="0 0 297 210"
   version="1.1"
   id="svg5065"
   inkscape:version="1.1.1 (3bf5ae0d25, 2021-09-20)"
   sodipodi:docname="logo_projet.svg"
   xmlns:inkscape="http://www.inkscape.org/namespaces/inkscape"
   xmlns:sodipodi="http://sodipodi.sourceforge.net/DTD/sodipodi-0.dtd"
   xmlns="http://www.w3.org/2000/svg"
   xmlns:svg="http://www.w3.org/2000/svg"
   xmlns:rdf="http://www.w3.org/1999/02/22-rdf-syntax-ns#"
   xmlns:cc="http://creativecommons.org/ns#"
   xmlns:dc="http://purl.org/dc/elements/1.1/">
  <defs
     id="defs5059">
    <linearGradient
       id="linearGradient6207"
       inkscape:swatch="solid">
      <stop
         style="stop-color:#00a2fe;stop-opacity:1;"
         offset="0"
         id="stop6205" />
    </linearGradient>
  </defs>
  <sodipodi:namedview
     id="base"
     pagecolor="#ffffff"
     bordercolor="#666666"
     borderopacity="1.0"
     inkscape:pageopacity="0"
     inkscape:pageshadow="2"
     inkscape:zoom="0.99999996"
     inkscape:cx="441.50002"
     inkscape:cy="461.50002"
     inkscape:document-units="mm"
     inkscape:current-layer="layer9"
     showgrid="false"
     inkscape:window-width="1920"
     inkscape:window-height="1017"
     inkscape:window-x="-8"
     inkscape:window-y="-8"
     inkscape:window-maximized="1"
     inkscape:pagecheckerboard="0" />
  <metadata
     id="metadata5062">
    <rdf:RDF>
      <cc:Work
         rdf:about="">
        <dc:format>image/svg+xml</dc:format>
        <dc:type
           rdf:resource="http://purl.org/dc/dcmitype/StillImage" />
      </cc:Work>
    </rdf:RDF>
  </metadata>
  <g
     inkscape:groupmode="layer"
     id="layer2"
     inkscape:label="remplissage_1"
     style="display:inline">
    <path
       style="fill:#00a2fe;fill-opacity:1;stroke:none;stroke-width:1.00487;stroke-miterlimit:4;stroke-dasharray:none;stroke-dashoffset:0;stroke-opacity:1"
       d="m 697.08912,612.16792 c -31.14305,-7.11506 -54.19582,-30.26857 -60.66104,-60.92614 -2.62279,-12.43703 -2.62463,-18.65562 -0.009,-31.1127 4.61458,-21.97915 19.83391,-42.86498 38.39441,-52.68953 4.78618,-2.53345 24.63651,-9.96095 44.11185,-16.50555 l 35.4097,-11.89927 24.80409,74.39742 c 13.64225,40.91859 24.65712,74.52316 24.47752,74.67685 -0.17962,0.15368 -17.11525,5.7999 -37.63473,12.54714 -41.4513,13.63009 -51.94532,15.38362 -68.89257,11.51178 z"
       id="path4525"
       inkscape:connector-curvature="0"
       transform="scale(0.26458333)" />
    <path
       style="fill:#00a2fe;fill-opacity:1;stroke:none;stroke-width:1.00487;stroke-miterlimit:4;stroke-dasharray:none;stroke-dashoffset:0;stroke-opacity:1"
       d="m 592.22751,596.85017 c -0.76887,-0.97228 -4.10239,-9.94457 -7.40784,-19.93844 -5.04866,-15.26443 -5.70098,-18.46066 -4.07852,-19.98381 1.67364,-1.57119 27.07271,-10.63589 29.8015,-10.63589 0.54619,0 1.39025,2.38649 1.87567,5.3033 1.36254,8.18721 6.13936,22.72515 9.91533,30.17667 l 3.41176,6.73279 -15.17514,5.05657 c -17.33259,5.77547 -16.49508,5.6253 -18.34276,3.28881 z"
       id="path4527"
       inkscape:connector-curvature="0"
       transform="scale(0.26458333)" />
    <path
       style="fill:#00a2fe;fill-opacity:1;stroke:none;stroke-width:1.00487;stroke-miterlimit:4;stroke-dasharray:none;stroke-dashoffset:0;stroke-opacity:1"
       d="m 224.15121,481.5528 c -13.15312,-13.15312 -13.42238,-45.18404 -0.74975,-89.19074 19.96383,-69.32597 58.00349,-123.09742 95.21363,-134.59047 17.16567,-5.30193 38.78169,-2.90847 49.65095,5.49768 l 3.38242,2.61592 -2.50806,10.44932 c -16.87256,70.29575 -58.26991,153.77064 -93.95393,189.45159 -16.04805,16.04666 -25.07979,21.10896 -37.66087,21.10896 -7.40636,0 -8.44833,-0.4162 -13.37439,-5.34226 z m 54.65196,-78.90414 c 5.79268,-6.14204 5.90348,-7.72588 0.74563,-10.65937 -2.19981,-1.25113 -8.22368,-4.63698 -13.38636,-7.52412 l -9.3867,-5.24934 -2.86287,4.69569 c -6.90438,11.32463 0.65892,23.58679 14.63725,23.73096 4.50098,0.0464 6.34786,-0.85311 10.25305,-4.99382 z m 45.96551,-38.32029 c 9.61814,-16.85354 17.65362,-31.03433 17.85663,-31.51288 0.39614,-0.93383 -14.69036,-9.9692 -16.64574,-9.9692 -0.936,0 -28.46508,46.17938 -35.13302,58.93482 -1.47218,2.81619 -0.92683,3.49351 6.51674,8.09386 4.46785,2.76126 8.52713,5.03752 9.02061,5.05834 0.49349,0.0208 8.76664,-13.75139 18.38478,-30.60494 z M 281.6345,338.32736 c 9.57853,-16.68167 17.43187,-30.76091 17.45185,-31.28718 0.0435,-1.14503 -14.55183,-9.64974 -16.56035,-9.64974 -0.77173,0 -8.60881,12.56883 -17.41574,27.93072 -8.80692,15.3619 -16.86751,29.27994 -17.91241,30.92899 -1.78131,2.81123 -1.38989,3.31054 6.27418,8.00367 4.4957,2.75297 8.75292,4.87006 9.46048,4.70463 0.70757,-0.16542 9.12346,-13.94941 18.70199,-30.63109 z"
       id="path4529"
       inkscape:connector-curvature="0"
       transform="scale(0.26458333)" />
  </g>
  <g
     inkscape:label="Arobaze"
     inkscape:groupmode="layer"
     id="layer1"
     style="display:inline"
     transform="translate(0,-87)">
    <g
       id="layer1-6"
       label="Layer 1"
       transform="matrix(0.50897686,0,0,0.55059628,1.1952154,104.9376)"
       groupmode="layer">
      <g
         id="character 夊"
         transform="scale(0.97978,1.0206)">
        <path
           inkscape:connector-curvature="0"
           id="path2912"
           d="m 123.8,197.93 c -8.5225,0 -13.171,-6.973 -13.171,-19.757 0,-23.631 25.568,-90.648 66.243,-90.648 7.7477,0 12.396,1.5496 18.207,5.4234 -7.3603,36.027 -43.775,104.98 -71.279,104.98 m 75.54,-119.7 -1.5495,3.0991 c -7.3603,-3.8739 -12.396,-5.036 -21.306,-5.036 -68.955,0 -97.621,79.027 -97.621,107.69 0,25.18 13.946,31.766 25.568,32.153 29.441,0.77477 60.045,-34.09 70.892,-53.459 l 0.77478,0.38739 c -13.171,41.063 -1.5495,53.072 21.694,53.072 45.324,0 87.162,-40.676 87.162,-93.748 0,-62.757 -44.937,-113.5 -118.54,-113.5 -79.802,0 -156.12,58.108 -156.12,156.5 0,83.675 67.405,123.19 132.1,123.19 24.018,0 55.396,-4.2613 79.414,-17.432 l -3.0991,-9.6847 c -17.432,7.3603 -43,12.009 -65.468,12.009 -87.162,0 -112.73,-61.982 -112.73,-109.63 0,-70.892 48.811,-139.07 126.68,-139.07 55.009,0 99.558,36.027 98.396,99.558 0,39.901 -27.504,77.09 -53.459,77.09 -10.847,0 -17.82,-4.6487 -13.171,-23.243 l 25.568,-99.946 h -25.18" />
      </g>
    </g>
  </g>
  <g
     inkscape:groupmode="layer"
     id="layer9"
     inkscape:label="plug_2"
     style="display:inline">
    <path
       style="fill:none;fill-rule:evenodd;stroke:#000000;stroke-width:0.264583px;stroke-linecap:butt;stroke-linejoin:miter;stroke-opacity:1"
       d="M 81.067102,104.22504 90.361097,87.976519 86.193359,85.570271 76.875501,101.70921 Z"
       id="path4638"
       inkscape:connector-curvature="0" />
    <path
       style="fill:none;fill-rule:evenodd;stroke:#000000;stroke-width:0.264583px;stroke-linecap:butt;stroke-linejoin:miter;stroke-opacity:1"
       d="m 74.760174,104.59038 -6.696046,-3.86596 -0.976101,1.55855 -0.269198,0.69222 -0.07691,0.78837 -0.03846,0.51917 0.269197,0.86528 0.596083,1.03833 0.730681,0.59608 0.711451,0.44226 0.692225,0.30766 0.649999,0.0954 0.83059,0.0199 1.038336,-0.19229 0.846051,-0.46148 0.826823,-0.82682 z"
       id="path4644"
       inkscape:connector-curvature="0" />
    <path
       style="fill:none;fill-rule:evenodd;stroke:#000000;stroke-width:0.264583px;stroke-linecap:butt;stroke-linejoin:miter;stroke-opacity:1"
       d="M 69.564632,97.458355 78.858628,81.209819 74.690889,78.803571 65.373031,94.94254 Z"
       id="path4638-7"
       inkscape:connector-curvature="0" />
    <path
       style="fill:#000000;fill-opacity:1;stroke:#0000ff;stroke-width:0.176749;stroke-miterlimit:4;stroke-dasharray:none;stroke-dashoffset:0;stroke-opacity:1"
       d="M 67.39783,95.885994 C 66.483356,95.322147 65.769333,94.79948 65.811108,94.7245 c 1.259724,-2.260775 8.719235,-15.125544 8.859573,-15.279325 0.195167,-0.21386 3.307641,1.372428 3.59033,1.829826 0.184925,0.299218 -8.602052,15.682737 -8.942742,15.656227 -0.141769,-0.011 -1.005965,-0.481387 -1.920439,-1.045234 z"
       id="path4679"
       inkscape:connector-curvature="0" />
    <path
       style="fill:#000000;fill-opacity:1;stroke:#0000ff;stroke-width:0.176749;stroke-miterlimit:4;stroke-dasharray:none;stroke-dashoffset:0;stroke-opacity:1"
       d="m 79.113284,102.7401 -1.887159,-1.13518 4.469201,-7.737074 c 2.458059,-4.255386 4.503579,-7.77669 4.545597,-7.825111 0.04202,-0.04842 0.907997,0.385111 1.924402,0.963401 l 1.848003,1.051435 -4.279688,7.494016 c -2.353828,4.121706 -4.38173,7.680703 -4.506444,7.908863 -0.199887,0.36568 -0.45035,0.28034 -2.113912,-0.72035 z"
       id="path4681"
       inkscape:connector-curvature="0" />
    <path
       style="fill:#000000;fill-opacity:1;stroke:#0000ff;stroke-width:0.176749;stroke-miterlimit:4;stroke-dasharray:none;stroke-dashoffset:0;stroke-opacity:1"
       d="m 68.765504,106.73963 c -1.622978,-1.05236 -2.231022,-2.83473 -1.455338,-4.26606 0.796364,-1.46948 0.635513,-1.47635 3.528938,0.15071 3.844872,2.16208 3.671935,1.99482 3.07426,2.97328 -1.119563,1.83284 -3.327191,2.32261 -5.14786,1.14207 z"
       id="path4683"
       inkscape:connector-curvature="0" />
  </g>
  <g
     inkscape:groupmode="layer"
     id="layer3"
     inkscape:label="wire"
     transform="translate(0,-87)"
     style="display:inline">
    <g
       transform="matrix(0.10677401,-0.21400707,-0.21400707,-0.10677401,203.7521,318.82447)"
       id="g4">
      <path
         inkscape:connector-curvature="0"
         d="m 202.7,259.7 -31.5,31.5 c -5.6,5.6 -8.6,13 -8.6,20.9 0,7.9 3.1,15.3 8.6,20.9 l 6.1,6.1 -3.7,3.7 c -11.1,11.1 -29.2,11.1 -40.4,0 l -31.4,-31.4 c -20.7,-20.7 -54.3,-20.7 -75,0 -20.7,20.7 -20.7,54.3 0,75 l 31.4,31.5 c 5.4,5.4 8.4,12.6 8.4,20.2 0,7.6 -3,14.8 -8.4,20.2 -4.8,4.8 -4.8,12.5 0,17.3 2.4,2.4 5.5,3.6 8.7,3.6 3.1,0 6.3,-1.2 8.7,-3.6 10,-10 15.5,-23.3 15.5,-37.5 0,-14.2 -5.5,-27.5 -15.5,-37.5 L 44.2,369.1 c -11.1,-11.1 -11.1,-29.2 0,-40.4 11.1,-11.2 29.2,-11.1 40.4,0 L 116,360 c 20.7,20.7 54.3,20.7 75,0 l 3.7,-3.7 6.1,6.1 c 5.8,5.8 13.3,8.6 20.9,8.6 7.6,0 15.1,-2.9 20.9,-8.6 l 31.5,-31.5 c 11.4,3.7 23.2,5.7 35,5.7 28.7,0 57.4,-10.9 79.2,-32.7 l 55.1,-55.1 9.9,9.9 c 2.4,2.4 5.5,3.6 8.7,3.6 3.2,0 6.3,-1.2 8.7,-3.6 4.8,-4.8 4.8,-12.5 0,-17.3 l -40.5,-40.5 67,-67 c 4.8,-4.8 4.8,-12.5 0,-17.3 -4.8,-4.8 -12.5,-4.8 -17.3,0 l -67,67 -62.7,-62.6 67,-67 c 4.8,-4.8 4.8,-12.5 0,-17.3 -4.8,-4.8 -12.5,-4.8 -17.3,0 l -67,67 -40.5,-40.5 c -4.8,-4.8 -12.5,-4.8 -17.3,0 -4.8,4.8 -4.8,12.5 0,17.3 l 9.9,9.9 -55.1,55.1 C 199,176.4 190,220.8 202.7,259.7 Z m 44.4,26.9 C 213,252.5 213,197 247.1,162.9 l 55.1,-55.1 123.8,123.6 -55.1,55.1 c -34.2,34.2 -89.7,34.2 -123.8,0.1 z m -33.4,-3.2 c 4.5,7.3 9.8,14.2 16.1,20.5 6.3,6.3 13.2,11.6 20.5,16.1 l -25.2,25.2 c -1.9,2 -5.1,2 -7.1,0 l -29.5,-29.5 c -1.3,-1.3 -1.5,-2.8 -1.5,-3.5 0,-0.8 0.2,-2.3 1.5,-3.5 z"
         id="path2" />
    </g>
  </g>
</svg>
