<?xml version="1.0" encoding="UTF-8" standalone="no"?>
<!-- Created with Inkscape (http://www.inkscape.org/) -->

<svg
   width="30.000034mm"
   height="21.847492mm"
   viewBox="0 0 30.000034 21.847492"
   version="1.1"
   id="svg5065"
   inkscape:version="1.1.1 (3bf5ae0d25, 2021-09-20)"
   sodipodi:docname="logo_projet_blackPart_plug.svg"
   xmlns:inkscape="http://www.inkscape.org/namespaces/inkscape"
   xmlns:sodipodi="http://sodipodi.sourceforge.net/DTD/sodipodi-0.dtd"
   xmlns="http://www.w3.org/2000/svg"
   xmlns:svg="http://www.w3.org/2000/svg"
   xmlns:rdf="http://www.w3.org/1999/02/22-rdf-syntax-ns#"
   xmlns:cc="http://creativecommons.org/ns#"
   xmlns:dc="http://purl.org/dc/elements/1.1/">
  <defs
     id="defs5059">
    <linearGradient
       id="linearGradient6207"
       inkscape:swatch="solid">
      <stop
         style="stop-color:#00a2fe;stop-opacity:1;"
         offset="0"
         id="stop6205" />
    </linearGradient>
  </defs>
  <sodipodi:namedview
     id="base"
     pagecolor="#ffffff"
     bordercolor="#666666"
     borderopacity="1.0"
     inkscape:pageopacity="0"
     inkscape:pageshadow="2"
     inkscape:zoom="5.656854"
     inkscape:cx="44.989671"
     inkscape:cy="42.514797"
     inkscape:document-units="mm"
     inkscape:current-layer="layer3"
     showgrid="false"
     inkscape:window-width="1920"
     inkscape:window-height="1017"
     inkscape:window-x="-8"
     inkscape:window-y="-8"
     inkscape:window-maximized="1"
     inkscape:pagecheckerboard="0"
     fit-margin-top="0"
     fit-margin-left="0"
     fit-margin-right="0"
     fit-margin-bottom="0" />
  <metadata
     id="metadata5062">
    <rdf:RDF>
      <cc:Work
         rdf:about="">
        <dc:format>image/svg+xml</dc:format>
        <dc:type
           rdf:resource="http://purl.org/dc/dcmitype/StillImage" />
      </cc:Work>
    </rdf:RDF>
  </metadata>
  <g
     inkscape:groupmode="layer"
     id="layer3"
     inkscape:label="wire"
     transform="translate(2.2978486e-5,-87.000025)"
     style="display:inline">
    <path
       inkscape:connector-curvature="0"
       d="m 20.915506,104.61858 -1.289796,0.43063 c -0.229295,0.0765 -0.472327,0.0577 -0.68813,-0.0499 -0.215803,-0.10753 -0.375698,-0.29284 -0.45371,-0.51912 l -0.08349,-0.24946 -0.151501,0.0506 c -0.4545,0.15175 -0.701185,0.64557 -0.550616,1.10222 l 0.429793,1.2841 c 0.283338,0.84653 -0.1746,1.76323 -1.022182,2.04621 -0.847578,0.28299 -1.765419,-0.17438 -2.048757,-1.02091 l -0.432524,-1.28546 c -0.07391,-0.22083 -0.229708,-0.40069 -0.437314,-0.50414 -0.207607,-0.10345 -0.445174,-0.11961 -0.666283,-0.0458 -0.196541,0.0656 -0.406879,-0.0392 -0.472581,-0.23549 -0.03285,-0.0981 -0.02339,-0.19906 0.02024,-0.28636 0.04225,-0.0846 0.118643,-0.15555 0.216912,-0.18836 0.40946,-0.1367 0.847734,-0.10572 1.235631,0.0876 0.387901,0.19329 0.67625,0.52438 0.81313,0.93333 l 0.432524,1.28546 c 0.151935,0.45394 0.646366,0.70032 1.103597,0.54993 0.457231,-0.15038 0.701185,-0.64556 0.550617,-1.10222 l -0.427063,-1.28274 c -0.283335,-0.84652 0.174603,-1.76322 1.022182,-2.04621 l 0.151497,-0.0506 -0.08349,-0.24946 c -0.07939,-0.23719 -0.05366,-0.47992 0.04993,-0.68727 0.103582,-0.20735 0.285016,-0.3725 0.519772,-0.45315 l 1.289793,-0.43062 c 0.0543,-0.36139 0.160491,-0.71055 0.321315,-1.03249 0.391155,-0.783017 1.080061,-1.417658 1.972679,-1.715678 l 2.256118,-0.753255 -0.135507,-0.404859 c -0.03285,-0.09815 -0.02339,-0.199058 0.02024,-0.286363 0.04361,-0.08731 0.118643,-0.155546 0.216912,-0.188355 0.19654,-0.06562 0.406878,0.03919 0.47258,0.235491 l 0.554353,1.656241 2.743372,-0.915935 c 0.196541,-0.06562 0.406878,0.0392 0.47258,0.235491 0.0657,0.196295 -0.03924,0.406373 -0.235786,0.471993 l -2.743372,0.915932 0.855487,2.562747 2.743376,-0.91593 c 0.196537,-0.0656 0.406878,0.0392 0.472577,0.23549 0.0657,0.19629 -0.03924,0.40637 -0.235783,0.47199 l -2.743372,0.91593 0.554349,1.65625 c 0.0657,0.19629 -0.03924,0.40637 -0.235782,0.47199 -0.196541,0.0656 -0.406879,-0.0392 -0.472581,-0.23549 l -0.135507,-0.40486 -2.256115,0.75325 c -1.265228,0.42243 -2.600757,0.0636 -3.490287,-0.81241 z m -0.129691,-1.57752 c 0.466751,1.39452 1.98283,2.14999 3.379084,1.68382 l 2.256118,-0.75325 -1.689071,-5.06007 -2.256118,0.753252 c -1.400347,0.467538 -2.156765,1.981728 -1.690013,3.376248 z m -0.367797,0.9548 c -0.138082,-0.22214 -0.254334,-0.46066 -0.340566,-0.7183 -0.08623,-0.25764 -0.13697,-0.51803 -0.160405,-0.77845 l -1.031833,0.3445 c -0.08053,0.0246 -0.124143,0.11192 -0.09677,0.19371 l 0.403787,1.2064 c 0.01778,0.0532 0.05604,0.079 0.07516,0.0886 0.02187,0.0109 0.06556,0.0259 0.116054,0.007 z"
       id="path2"
       style="fill:none;stroke:#000000;stroke-width:0.1;stroke-miterlimit:4;stroke-dasharray:none" />
  </g>
</svg>
