<?xml version="1.0" encoding="UTF-8" standalone="no"?>
<!-- Created with Inkscape (http://www.inkscape.org/) -->

<svg
   width="30.000034mm"
   height="21.847492mm"
   viewBox="0 0 30.000034 21.847492"
   version="1.1"
   id="svg5065"
   inkscape:version="1.1.1 (3bf5ae0d25, 2021-09-20)"
   sodipodi:docname="logo_projet_blackPart_face_reduit.svg"
   xmlns:inkscape="http://www.inkscape.org/namespaces/inkscape"
   xmlns:sodipodi="http://sodipodi.sourceforge.net/DTD/sodipodi-0.dtd"
   xmlns="http://www.w3.org/2000/svg"
   xmlns:svg="http://www.w3.org/2000/svg"
   xmlns:rdf="http://www.w3.org/1999/02/22-rdf-syntax-ns#"
   xmlns:cc="http://creativecommons.org/ns#"
   xmlns:dc="http://purl.org/dc/elements/1.1/">
  <defs
     id="defs5059">
    <linearGradient
       id="linearGradient6207"
       inkscape:swatch="solid">
      <stop
         style="stop-color:#00a2fe;stop-opacity:1;"
         offset="0"
         id="stop6205" />
    </linearGradient>
  </defs>
  <sodipodi:namedview
     id="base"
     pagecolor="#ffffff"
     bordercolor="#666666"
     borderopacity="1.0"
     inkscape:pageopacity="0"
     inkscape:pageshadow="2"
     inkscape:zoom="31.999999"
     inkscape:cx="39.546877"
     inkscape:cy="34.703127"
     inkscape:document-units="mm"
     inkscape:current-layer="layer3"
     showgrid="false"
     inkscape:window-width="1920"
     inkscape:window-height="1017"
     inkscape:window-x="-8"
     inkscape:window-y="-8"
     inkscape:window-maximized="1"
     inkscape:pagecheckerboard="0"
     fit-margin-top="0"
     fit-margin-left="0"
     fit-margin-right="0"
     fit-margin-bottom="0"
     inkscape:snap-global="false" />
  <metadata
     id="metadata5062">
    <rdf:RDF>
      <cc:Work
         rdf:about="">
        <dc:format>image/svg+xml</dc:format>
        <dc:type
           rdf:resource="http://purl.org/dc/dcmitype/StillImage" />
      </cc:Work>
    </rdf:RDF>
  </metadata>
  <g
     inkscape:groupmode="layer"
     id="layer3"
     inkscape:label="wire"
     transform="translate(2.2978486e-5,-87.000025)"
     style="display:inline">
    <path
       id="path1678"
       style="display:inline;fill:none;fill-rule:evenodd;stroke:#000000;stroke-width:0.01;stroke-linecap:butt;stroke-linejoin:miter;stroke-miterlimit:4;stroke-dasharray:none;stroke-opacity:1"
       d="M 8.7730848,94.175814 7.58401,96.23357 8.1188612,96.553964 9.3053521,94.482772 Z m 1.4681272,0.862997 -1.1890743,2.057238 0.5348509,0.320911 1.1864904,-2.071708 z m -2.3140702,1.931665 -0.1245405,0.198954 -0.034106,0.08785 -0.00982,0.100769 -0.00517,0.06615 0.034623,0.110071 0.075964,0.132808 0.093018,0.07596 0.090951,0.05633 0.088367,0.03927 0.083199,0.01189 0.1059368,0.0026 0.1322916,-0.02481 0.1080037,-0.05891 0.1054201,-0.104903 0.1105873,-0.201021 z" />
    <path
       id="path4638"
       style="display:inline;fill:none;fill-rule:evenodd;stroke:#000000;stroke-width:0.01;stroke-linecap:butt;stroke-linejoin:miter;stroke-miterlimit:4;stroke-dasharray:none;stroke-opacity:1"
       sodipodi:type="inkscape:offset"
       inkscape:radius="0.099219002"
       inkscape:original="M 8.7734375 94.175781 L 7.5839844 96.234375 L 8.1191406 96.554688 L 9.3046875 94.482422 L 8.7734375 94.175781 z M 10.242188 95.039062 L 9.0527344 97.095703 L 9.5878906 97.416016 L 10.773438 95.345703 L 10.242188 95.039062 z M 7.9277344 96.970703 L 7.8027344 97.169922 L 7.7675781 97.257812 L 7.7578125 97.357422 L 7.7539062 97.423828 L 7.7890625 97.535156 L 7.8632812 97.667969 L 7.9570312 97.742188 L 8.0488281 97.798828 L 8.1367188 97.837891 L 8.21875 97.849609 L 8.3261719 97.853516 L 8.4570312 97.828125 L 8.5664062 97.769531 L 8.671875 97.664062 L 8.78125 97.462891 L 7.9277344 96.970703 z "
       d="M 8.8222656,94.089844 A 0.09922892,0.09922892 0 0 0 8.6875,94.126953 l -1.1894531,2.058594 a 0.09922892,0.09922892 0 0 0 0.035156,0.134765 l 0.5351563,0.320313 a 0.09922892,0.09922892 0 0 0 0.1367187,-0.03711 L 9.390625,94.53125 a 0.09922892,0.09922892 0 0 0 -0.037109,-0.134766 z m 1.4687504,0.863281 a 0.09922892,0.09922892 0 0 0 -0.134766,0.03711 l -1.1894531,2.056641 a 0.09922892,0.09922892 0 0 0 0.035156,0.134766 l 0.5351563,0.320312 a 0.09922892,0.09922892 0 0 0 0.1367187,-0.03711 l 1.1855469,-2.070313 a 0.09922892,0.09922892 0 0 0 -0.03711,-0.134765 z m -2.3144535,1.931641 a 0.09922892,0.09922892 0 0 0 -0.1328125,0.0332 l -0.125,0.199219 a 0.09922892,0.09922892 0 0 0 -0.00781,0.01562 l -0.035156,0.08789 a 0.09922892,0.09922892 0 0 0 -0.00781,0.02734 l -0.00977,0.09961 a 0.09922892,0.09922892 0 0 0 0,0.0039 l -0.00391,0.06641 a 0.09922892,0.09922892 0 0 0 0.00586,0.03516 l 0.035156,0.111328 a 0.09922892,0.09922892 0 0 0 0.00781,0.01953 l 0.074219,0.132813 a 0.09922892,0.09922892 0 0 0 0.023437,0.0293 l 0.09375,0.07422 a 0.09922892,0.09922892 0 0 0 0.00977,0.0059 l 0.091797,0.05664 a 0.09922892,0.09922892 0 0 0 0.011719,0.0059 l 0.087891,0.03906 a 0.09922892,0.09922892 0 0 0 0.027344,0.0078 l 0.082031,0.01172 a 0.09922892,0.09922892 0 0 0 0.00977,0.002 l 0.1074218,0.0039 a 0.09922892,0.09922892 0 0 0 0.023437,-0.002 l 0.1308594,-0.02539 a 0.09922892,0.09922892 0 0 0 0.027344,-0.0098 l 0.109375,-0.05859 a 0.09922892,0.09922892 0 0 0 0.023438,-0.01758 l 0.1054687,-0.105469 a 0.09922892,0.09922892 0 0 0 0.017578,-0.02344 l 0.109375,-0.201172 a 0.09922892,0.09922892 0 0 0 -0.039063,-0.132813 z" />
  </g>
</svg>
