<?xml version="1.0" encoding="UTF-8" standalone="no"?>
<!-- Created with Inkscape (http://www.inkscape.org/) -->

<svg
   width="30.000034mm"
   height="21.847492mm"
   viewBox="0 0 30.000034 21.847492"
   version="1.1"
   id="svg5065"
   inkscape:version="1.1.1 (3bf5ae0d25, 2021-09-20)"
   sodipodi:docname="logo_projet_blackPart_arob_center_reduit.svg"
   xmlns:inkscape="http://www.inkscape.org/namespaces/inkscape"
   xmlns:sodipodi="http://sodipodi.sourceforge.net/DTD/sodipodi-0.dtd"
   xmlns="http://www.w3.org/2000/svg"
   xmlns:svg="http://www.w3.org/2000/svg"
   xmlns:rdf="http://www.w3.org/1999/02/22-rdf-syntax-ns#"
   xmlns:cc="http://creativecommons.org/ns#"
   xmlns:dc="http://purl.org/dc/elements/1.1/">
  <defs
     id="defs5059">
    <linearGradient
       id="linearGradient6207"
       inkscape:swatch="solid">
      <stop
         style="stop-color:#00a2fe;stop-opacity:1;"
         offset="0"
         id="stop6205" />
    </linearGradient>
  </defs>
  <sodipodi:namedview
     id="base"
     pagecolor="#ffffff"
     bordercolor="#666666"
     borderopacity="1.0"
     inkscape:pageopacity="0"
     inkscape:pageshadow="2"
     inkscape:zoom="15.999999"
     inkscape:cx="6.7812503"
     inkscape:cy="33.906252"
     inkscape:document-units="mm"
     inkscape:current-layer="layer3"
     showgrid="false"
     inkscape:window-width="1920"
     inkscape:window-height="1017"
     inkscape:window-x="-8"
     inkscape:window-y="-8"
     inkscape:window-maximized="1"
     inkscape:pagecheckerboard="0"
     fit-margin-top="0"
     fit-margin-left="0"
     fit-margin-right="0"
     fit-margin-bottom="0"
     inkscape:snap-global="false" />
  <metadata
     id="metadata5062">
    <rdf:RDF>
      <cc:Work
         rdf:about="">
        <dc:format>image/svg+xml</dc:format>
        <dc:type
           rdf:resource="http://purl.org/dc/dcmitype/StillImage" />
      </cc:Work>
    </rdf:RDF>
  </metadata>
  <g
     inkscape:groupmode="layer"
     id="layer3"
     inkscape:label="wire"
     transform="translate(2.2978486e-5,-87.000025)"
     style="display:inline">
    <path
       id="path2912"
       style="fill:none;stroke:#000000;stroke-width:0.37795276;stroke-miterlimit:4;stroke-dasharray:none"
       sodipodi:type="inkscape:offset"
       inkscape:radius="-0.12188119"
       inkscape:original="M 40.253906 22.128906 C 38.004255 22.128906 35.94045 23.167954 34.066406 24.896484 C 32.192363 26.625014 30.53862 29.035598 29.181641 31.658203 C 26.467682 36.903413 24.953125 43.04198 24.953125 46.037109 C 24.953125 47.69917 25.234266 48.933967 25.679688 49.685547 C 26.124716 50.436463 26.655894 50.749448 27.484375 50.75 L 27.486328 50.75 A 0.63675727 0.63675727 0 0 1 27.486328 50.748047 C 28.841186 50.748047 30.521294 49.722935 32.244141 47.880859 C 33.966987 46.038784 35.718024 43.435789 37.320312 40.523438 C 40.438589 34.855593 42.971353 28.030186 43.904297 23.273438 C 42.761468 22.47825 41.85503 22.128906 40.253906 22.128906 z "
       d="m 40.253906,22.25 c -2.212122,0 -4.246312,1.02153 -6.105468,2.736328 -1.858799,1.714469 -3.506962,4.114733 -4.859376,6.728516 -2.704628,5.227176 -4.214843,11.368224 -4.214843,14.322265 0,1.648317 0.283898,2.865377 0.710937,3.585938 0.430915,0.727101 0.9014,1.005328 1.699219,1.005859 h 0.002 v -0.002 c 0.03901,0 0.08141,-0.0099 0.121094,-0.01172 -1.55e-4,0.06937 1.81e-4,0.0144 0,0.132813 a 0.12189338,0.12189338 0 0 1 0,0.002 c 0.0014,0.913684 0.0022,0.291414 0.002,-0.134766 1.275477,-0.0592 2.886114,-1.044753 4.544922,-2.818359 1.711861,-1.83033 3.459598,-4.425665 5.058594,-7.332031 C 40.307637,34.839768 42.82609,28.06616 43.767578,23.332031 42.669025,22.57852 41.805111,22.25 40.253906,22.25 Z"
       transform="matrix(0.26458333,0,0,0.26458333,-2.2978486e-5,87.000025)" />
  </g>
</svg>
