<?xml version="1.0" encoding="UTF-8" standalone="no"?>
<!-- Created with Inkscape (http://www.inkscape.org/) -->

<svg
   width="30.000034mm"
   height="21.847492mm"
   viewBox="0 0 30.000034 21.847492"
   version="1.1"
   id="svg5065"
   inkscape:version="1.1.1 (3bf5ae0d25, 2021-09-20)"
   sodipodi:docname="logo_projet_blackPart_arob.svg"
   xmlns:inkscape="http://www.inkscape.org/namespaces/inkscape"
   xmlns:sodipodi="http://sodipodi.sourceforge.net/DTD/sodipodi-0.dtd"
   xmlns="http://www.w3.org/2000/svg"
   xmlns:svg="http://www.w3.org/2000/svg"
   xmlns:rdf="http://www.w3.org/1999/02/22-rdf-syntax-ns#"
   xmlns:cc="http://creativecommons.org/ns#"
   xmlns:dc="http://purl.org/dc/elements/1.1/">
  <defs
     id="defs5059">
    <linearGradient
       id="linearGradient6207"
       inkscape:swatch="solid">
      <stop
         style="stop-color:#00a2fe;stop-opacity:1;"
         offset="0"
         id="stop6205" />
    </linearGradient>
  </defs>
  <sodipodi:namedview
     id="base"
     pagecolor="#ffffff"
     bordercolor="#666666"
     borderopacity="1.0"
     inkscape:pageopacity="0"
     inkscape:pageshadow="2"
     inkscape:zoom="5.656854"
     inkscape:cx="44.989671"
     inkscape:cy="42.514797"
     inkscape:document-units="mm"
     inkscape:current-layer="layer3"
     showgrid="false"
     inkscape:window-width="1920"
     inkscape:window-height="1017"
     inkscape:window-x="-8"
     inkscape:window-y="-8"
     inkscape:window-maximized="1"
     inkscape:pagecheckerboard="0"
     fit-margin-top="0"
     fit-margin-left="0"
     fit-margin-right="0"
     fit-margin-bottom="0" />
  <metadata
     id="metadata5062">
    <rdf:RDF>
      <cc:Work
         rdf:about="">
        <dc:format>image/svg+xml</dc:format>
        <dc:type
           rdf:resource="http://purl.org/dc/dcmitype/StillImage" />
      </cc:Work>
    </rdf:RDF>
  </metadata>
  <g
     inkscape:groupmode="layer"
     id="layer3"
     inkscape:label="wire"
     transform="translate(2.2978486e-5,-87.000025)"
     style="display:inline">
    <path
       id="path2912"
       style="fill:none;stroke:#000000;stroke-width:0.377952;stroke-miterlimit:4;stroke-dasharray:none"
       d="M 37.738281 0.20117188 C 18.539256 0.20117188 0.17773437 15.933459 0.17773438 42.574219 C 0.17773438 65.230204 16.39445 75.929688 31.958984 75.929688 C 37.737313 75.929688 45.286126 74.775082 51.064453 71.208984 L 50.318359 68.587891 C 46.124512 70.58076 39.973783 71.839844 34.568359 71.839844 C 13.598642 71.839844 7.4472656 55.057486 7.4472656 42.15625 C 7.4472656 22.961432 19.191803 4.5 37.925781 4.5 C 51.160024 4.5 61.877217 14.255286 61.597656 31.457031 C 61.597656 42.260682 54.980667 52.330078 48.736328 52.330078 C 46.126723 52.330078 44.447934 51.071731 45.566406 46.037109 L 51.71875 18.974609 L 45.660156 18.974609 L 45.287109 19.814453 C 43.516344 18.765547 42.303753 18.451172 40.160156 18.451172 C 23.570737 18.451172 16.673828 39.848542 16.673828 47.609375 C 16.673828 54.427136 20.030113 56.209685 22.826172 56.314453 C 29.909184 56.524217 37.271253 47.084222 39.880859 41.839844 L 40.068359 41.945312 C 36.899638 53.063605 39.695121 56.314453 45.287109 56.314453 C 56.191303 56.314453 66.255859 45.301488 66.255859 30.931641 C 66.255859 13.939463 55.445932 0.20117188 37.738281 0.20117188 z M 40.253906 21.492188 C 42.117871 21.492188 43.236737 21.912062 44.634766 22.960938 C 42.864 32.71566 34.10333 51.384766 27.486328 51.384766 L 27.486328 51.386719 C 25.435957 51.386719 24.316406 49.498518 24.316406 46.037109 C 24.316406 39.638747 30.468181 21.492188 40.253906 21.492188 z "
       transform="matrix(0.26458333,0,0,0.26458333,-2.2978486e-5,87.000025)" />
  </g>
</svg>
